<svg width="52" height="64" viewBox="0 0 52 64" fill="none" xmlns="http://www.w3.org/2000/svg">
<path d="M48.4663 50.6393C48.4634 50.6393 48.4634 50.6393 48.4634 50.6393C47.8491 50.6393 47.2668 50.8806 46.8331 51.3137C38.4195 59.7195 26.3757 61.4721 17.5458 55.5776C9.61845 50.2847 7.304 39.1816 6.08419 29.0116C5.20208 21.6608 4.80906 14.8972 4.88766 8.34002C4.90222 6.77629 5.39422 5.36951 6.10457 4.84052C6.57037 4.49464 7.173 4.6109 7.58931 4.72716C8.40737 4.95968 8.94596 5.39567 9.60099 7.11055C10.6578 9.8776 11.0159 12.8249 11.4031 15.9494C11.6447 17.9317 11.8951 19.9721 12.3347 21.9951C12.6957 23.6489 13.3245 25.6864 14.981 26.7183C15.8922 27.2792 16.9868 27.4449 18.0727 27.1775C19.7001 26.7793 21.0568 25.2475 22.623 23.4745C23.3363 22.6723 24.5183 21.3324 25.2927 20.7656C25.5605 20.5709 25.9244 20.5709 26.1922 20.7656C26.9666 21.3353 28.1428 22.6694 28.8502 23.4658C30.4281 25.2475 31.7848 26.7793 33.4063 27.1775C34.4922 27.4449 35.5927 27.2792 36.4981 26.7183C38.1604 25.6864 38.7863 23.6489 39.1473 21.9951C39.5899 19.975 39.8373 17.9404 40.0789 15.9669C40.4603 12.8278 40.8213 9.87469 41.881 7.10764C42.539 5.39276 43.0746 4.95969 43.8927 4.72426C44.1314 4.65741 44.8563 4.45394 45.3774 4.83761C46.0878 5.36661 46.574 6.77048 46.5943 8.33712C46.673 14.8973 46.2799 21.6579 45.3978 29.0086C45.3483 29.4388 45.2959 29.8719 45.2464 30.3079L45.2319 30.4503C44.5972 35.9088 43.9451 41.5505 40.7427 45.5209C38.5796 48.1978 35.0075 50.2063 31.188 50.9038C27.1675 51.6305 22.0816 50.1714 20.5706 46.0237C19.7467 43.7537 20.5619 41.6987 21.1267 40.6785C22.2184 38.6875 24.0932 37.2255 26.1486 36.7692C27.348 36.5018 28.6377 36.6326 29.7644 37.1354C30.7076 37.5569 31.3394 37.9638 31.6334 38.3504C31.8663 38.6526 31.8343 39.0828 31.5606 39.3502C31.3102 39.5915 30.8211 39.9751 29.8837 40.446C28.7512 41.0157 27.4499 41.4749 26.3 41.8818C25.5721 42.1405 24.952 42.3614 24.4513 42.5794C23.8836 42.8294 23.4498 43.2799 23.2286 43.8525C23.0015 44.4251 23.0132 45.0558 23.2635 45.6168C23.7759 46.7823 25.1413 47.3171 26.3058 46.8056C26.6493 46.6573 27.2112 46.4597 27.8051 46.2475C30.8852 45.1546 35.0658 43.6723 36.2215 40.5187C36.5796 39.5362 36.7834 37.9754 35.7091 36.1414C34.7019 34.4265 32.9085 33.4848 31.6479 32.9209C29.6159 32.0169 27.3073 31.7873 25.1413 32.2698C21.8108 33.0081 18.7977 35.3275 17.0771 38.4637C15.4584 41.4081 15.1586 44.6518 16.2299 47.6049C17.3275 50.6161 19.6856 53.0402 22.8676 54.4237C25.674 55.6445 28.923 56.0078 32.0148 55.4439C36.9697 54.5429 41.4618 51.9822 44.341 48.4187C48.3818 43.4078 49.1475 36.8099 49.8229 30.9851C49.8753 30.5026 49.9336 30.0289 49.9889 29.5609C50.8943 22.0067 51.296 15.0484 51.2145 8.28481C51.1796 5.21547 50.0296 2.54723 48.1373 1.14045C46.6235 0.00979687 44.6642 -0.292484 42.6263 0.28883C39.5782 1.1608 38.3613 3.39014 37.5665 5.45962C36.306 8.75276 35.8926 12.1244 35.4937 15.3856C35.2521 17.3504 35.0279 19.1961 34.632 21.0127L34.6 21.1609C34.469 21.7509 33.7266 21.9544 33.3103 21.5155L33.3074 21.5126C32.9551 21.1347 32.597 20.7336 32.3175 20.4197C30.335 18.1759 28.2854 15.8622 25.7526 15.8622C23.1966 15.8622 21.147 18.1759 19.1616 20.4197C18.885 20.7336 18.5269 21.1347 18.1746 21.5126C17.7583 21.9602 17.013 21.7568 16.882 21.1609L16.85 21.0156C16.4541 19.199 16.227 17.3504 15.9883 15.3914C15.5894 12.1273 15.176 8.75566 13.9155 5.46252C13.1236 3.39304 11.9038 1.1608 8.8557 0.291739C8.17738 0.0999055 7.5078 0.0039827 6.8615 0.0039827C5.56308 0.0039827 4.3549 0.387654 3.33887 1.14336C1.45238 2.55014 0.29952 5.21837 0.264585 8.28771C0.180158 15.0455 0.584821 22.0038 1.49022 29.5638C2.08412 34.5021 2.95458 40.2774 4.9255 45.6778C5.97647 48.5582 7.27489 51.116 8.78292 53.2814C10.5209 55.7694 12.6025 57.836 14.9723 59.4172C17.6797 61.2222 20.6609 62.4662 23.837 63.1201C26.8589 63.7421 30.0351 63.809 33.1938 63.3236C39.4152 62.3615 45.4182 59.2573 50.0995 54.5777C50.5333 54.1447 50.7749 53.5634 50.7749 52.9442C50.7749 52.331 50.5333 51.7496 50.0966 51.3166C49.6628 50.8777 49.0806 50.6393 48.4663 50.6393Z" fill="#2AFF36"/>
</svg>
